<?xml version="1.0" standalone="no"?>
<!DOCTYPE svg PUBLIC "-//W3C//DTD SVG 20010904//EN"
 "http://www.w3.org/TR/2001/REC-SVG-20010904/DTD/svg10.dtd">
<svg version="1.0" xmlns="http://www.w3.org/2000/svg"
 width="512.000000pt" height="512.000000pt" viewBox="0 0 512.000000 512.000000"
 preserveAspectRatio="xMidYMid meet">
<metadata>
Created by potrace 1.14, written by Peter Selinger 2001-2017
</metadata>
<g transform="translate(0.000000,512.000000) scale(0.100000,-0.100000)"
fill="#000000" stroke="none">
<path d="M2630 4958 c-30 -4 -66 -11 -80 -17 -24 -9 -24 -10 -3 -10 69 -2 343
-112 440 -177 137 -91 239 -233 301 -419 11 -33 23 -73 26 -90 4 -16 9 -41 11
-55 11 -52 21 -139 19 -154 -7 -50 31 25 52 101 20 76 20 233 -1 315 -56 220
-221 399 -430 468 -103 33 -244 50 -335 38z"/>
<path d="M1905 4669 c-87 -14 -158 -62 -211 -144 -58 -91 -60 -206 -7 -311 14
-29 64 -92 111 -141 95 -99 616 -635 705 -725 32 -32 54 -58 50 -58 -5 0 -20
12 -34 28 -21 23 -210 208 -735 719 -56 54 -176 171 -267 260 -202 196 -253
227 -376 227 -92 0 -146 -22 -215 -89 -116 -112 -122 -285 -17 -424 14 -19
105 -116 202 -215 97 -100 216 -221 264 -271 48 -49 164 -169 258 -265 427
-437 498 -512 447 -463 -100 93 -191 182 -533 517 -426 416 -420 410 -494 448
-157 78 -333 22 -418 -133 -26 -48 -30 -64 -29 -134 1 -108 35 -181 136 -287
142 -149 801 -828 896 -923 3 -3 3 -5 -1 -5 -6 0 -19 12 -277 260 -102 97
-210 201 -240 229 -109 104 -235 141 -355 106 -48 -13 -70 -28 -120 -78 -51
-51 -64 -71 -74 -115 -14 -55 -9 -123 12 -171 36 -85 66 -116 561 -594 282
-273 314 -304 536 -517 107 -102 239 -228 294 -281 56 -53 119 -114 142 -135
51 -49 209 -194 249 -229 48 -42 184 -130 261 -168 70 -35 251 -102 302 -112
280 -54 453 -54 667 1 485 124 925 575 1054 1080 92 362 45 739 -145 1153
-155 337 -310 753 -340 916 -37 194 -37 245 -3 385 12 47 24 122 26 167 5 75
3 87 -21 136 -57 117 -187 160 -338 111 -143 -46 -270 -214 -295 -389 -10 -74
-3 -291 13 -378 2 -15 6 -48 8 -74 2 -27 7 -86 12 -133 7 -75 9 -127 5 -160
-1 -5 -13 -10 -27 -10 -28 0 -35 6 -322 288 -260 255 -932 914 -976 958 -119
118 -224 162 -341 143z m710 -1429 c3 -6 -1 -7 -9 -4 -18 7 -21 14 -7 14 6 0
13 -4 16 -10z m-950 -988 c-3 -3 -11 0 -18 7 -9 10 -8 11 6 5 10 -3 15 -9 12
-12z"/>
<path d="M2651 4594 c-72 -15 -95 -29 -65 -40 65 -23 175 -80 228 -118 77 -55
141 -121 245 -253 44 -56 85 -104 91 -108 6 -4 10 12 10 43 0 218 -135 410
-330 470 -58 18 -112 19 -179 6z"/>
<path d="M642 2038 c-26 -100 21 -239 114 -333 48 -49 146 -107 204 -121 92
-22 186 -23 260 -1 l42 12 -136 67 c-75 38 -167 88 -205 113 -79 52 -177 152
-232 238 l-38 59 -9 -34z"/>
<path d="M275 1950 c13 -184 100 -375 227 -496 47 -45 151 -114 171 -114 7 0
17 -4 23 -8 54 -45 299 -64 422 -32 39 11 88 26 107 35 41 20 138 90 110 80
-11 -4 -78 -8 -150 -10 -216 -6 -352 26 -528 121 -86 47 -250 251 -354 440
l-32 59 4 -75z"/>
</g>
</svg>
